<svg version="1" xmlns="http://www.w3.org/2000/svg" width="480" height="480" viewBox="0 0 360.000000 360.000000"><path d="M57.1 287c-6.4 1-14.4 4.9-23.4 11.6l-6.6 4.9 7.7.6c4.2.3 9 1 10.5 1.7 1.6.7 9 6.8 16.7 13.6 7.6 6.9 16.2 13.7 19.2 15.3 4.8 2.6 6.3 2.8 16.8 3 11.2.1 11.7.2 20 4.1 12.5 5.9 18.9 7.5 27.9 7 5.6-.3 8.9-1.2 12.6-3 5.1-2.7 13.5-9.3 13.5-10.7 0-.5-2.2-1.1-4.9-1.5-7.3-1-16.9-5.7-32-15.9-13.5-9.1-13.6-9.2-20.6-9.6-6.7-.3-7.4-.6-15-6C79.8 288 71.3 285 57.1 287zM275 287.5c-5.8 1.7-15 7.1-26.5 15.5-5.5 4-7.6 5-9.7 4.6-5.3-1-12.1 1.9-24.8 10.6-14.4 9.8-21.6 13.3-30.7 14.9l-6.5 1.1 4.2 4.3c8.4 8.5 19.2 12.2 31.1 10.5 7.8-1.1 12.2-2.6 21.9-7.5 7.1-3.6 7.9-3.7 16.5-3.6 15.2.3 19.8-2 39-19.5 6.3-5.8 13.4-11.4 15.7-12.4 4.6-2.1 12.3-2.6 17.6-1.1 1.8.6 3 .6 2.7.2-1.4-2.3-18.7-13.8-23.9-15.9-7.7-3.2-18.8-3.8-26.6-1.7z"/></svg>